<svg xmlns="http://www.w3.org/2000/svg" viewBox="0 0 1100 570" width="1100" height="570">
  <defs>
    <style>
      .label { font-family: 'Segoe UI', Arial, sans-serif; font-size: 12px; fill: #2c3e50; text-anchor: middle; }
      .op-text { font-family: 'Consolas', 'Courier New', monospace; font-size: 13px; fill: #c0392b; text-anchor: middle; font-weight: bold; }
      .title { font-family: 'Segoe UI', Arial, sans-serif; font-size: 15px; fill: #2c3e50; text-anchor: middle; font-weight: bold; }
      .conn { stroke: #555; stroke-width: 1.3; fill: none; }
      .legend-bg { fill: #f5f6f8; stroke: #ccc; stroke-width: 1; rx: 6; }
      .legend-text { font-family: 'Segoe UI', Arial, sans-serif; font-size: 10.5px; fill: #444; text-anchor: start; dominant-baseline: central; }
      .legend-title { font-family: 'Segoe UI', Arial, sans-serif; font-size: 11px; fill: #2c3e50; text-anchor: start; font-weight: bold; }
    </style>
  </defs>
  <rect width="1100" height="570" fill="#fafbfc" rx="8"/>
  <text x="550" y="28" class="title">CTT 1 — Submeter Vídeo para Prognóstico Clínico (Módulo Especialista)</text>
  <path d="M550,87 L550,125 L100,125 L100,163" class="conn"/>
  <path d="M550,87 L550,125 L450,125 L450,163" class="conn"/>
  <path d="M550,87 L550,125 L870,125 L870,163" class="conn"/>
  <path d="M450,207 L450,252 L300,252 L300,298" class="conn"/>
  <path d="M450,207 L450,252 L450,252 L450,298" class="conn"/>
  <path d="M450,207 L450,252 L590,252 L590,298" class="conn"/>
  <path d="M450,207 L450,252 L720,252 L720,298" class="conn"/>
  <path d="M870,207 L870,252 L810,252 L810,298" class="conn"/>
  <path d="M870,207 L870,252 L960,252 L960,298" class="conn"/>
  <path d="M870,207 L870,317 L870,317 L870,428" class="conn"/>
<ellipse cx="550" cy="63" rx="11.700000000000001" ry="7.2" fill="#b0c4de" stroke="#4a6fa5" stroke-width="1.5" opacity="0.85"/>
    <circle cx="545.5" cy="58.7" r="4.5" fill="#b0c4de" stroke="#4a6fa5" stroke-width="1.5"/>
    <circle cx="553.6" cy="57.8" r="4.05" fill="#b0c4de" stroke="#4a6fa5" stroke-width="1.5"/>
    <circle cx="550" cy="56.0" r="4.95" fill="#b0c4de" stroke="#4a6fa5" stroke-width="1.5"/>
  <text x="550" y="89" class="label">Obter prognóstico de</text>
  <text x="550" y="104" class="label">TEA para paciente</text>
<circle cx="100" cy="174.0" r="5.0" fill="none" stroke="#2c3e50" stroke-width="1.8"/>
    <path d="M92.0,189.0 Q92.0,181.0 100,181.0 Q108.0,181.0 108.0,189.0" fill="none" stroke="#2c3e50" stroke-width="1.8"/>
  <text x="100" y="209" class="label">Identificar necessidade</text>
  <text x="100" y="224" class="label">de análise do paciente</text>
<ellipse cx="450" cy="183" rx="11.700000000000001" ry="7.2" fill="#b0c4de" stroke="#4a6fa5" stroke-width="1.5" opacity="0.85"/>
    <circle cx="445.5" cy="178.7" r="4.5" fill="#b0c4de" stroke="#4a6fa5" stroke-width="1.5"/>
    <circle cx="453.6" cy="177.8" r="4.05" fill="#b0c4de" stroke="#4a6fa5" stroke-width="1.5"/>
    <circle cx="450" cy="176.0" r="4.95" fill="#b0c4de" stroke="#4a6fa5" stroke-width="1.5"/>
  <text x="450" y="209" class="label">Submeter e processar</text>
  <text x="450" y="224" class="label">vídeo no GAIA</text>
<ellipse cx="870" cy="183" rx="11.700000000000001" ry="7.2" fill="#b0c4de" stroke="#4a6fa5" stroke-width="1.5" opacity="0.85"/>
    <circle cx="865.5" cy="178.7" r="4.5" fill="#b0c4de" stroke="#4a6fa5" stroke-width="1.5"/>
    <circle cx="873.6" cy="177.8" r="4.05" fill="#b0c4de" stroke="#4a6fa5" stroke-width="1.5"/>
    <circle cx="870" cy="176.0" r="4.95" fill="#b0c4de" stroke="#4a6fa5" stroke-width="1.5"/>
  <text x="870" y="209" class="label">Analisar resultado</text>
  <text x="870" y="224" class="label">do prognóstico</text>
<circle cx="294.0" cy="310.0" r="3.5999999999999996" fill="none" stroke="#2c3e50" stroke-width="1.5"/>
    <path d="M289.6,321.0 Q289.6,315.6 294.0,315.6 Q298.4,315.6 298.4,321.0" fill="none" stroke="#2c3e50" stroke-width="1.5"/><line x1="300.0" y1="316.0" x2="303.6" y2="316.0" stroke="#2c3e50" stroke-width="1.5"/>
    <polygon points="303.6,313.0 308.6,316.0 303.6,319.0" fill="#2c3e50"/><rect x="305.2" y="310.4" width="7.6" height="6.0" rx="1.5" fill="none" stroke="#2c3e50" stroke-width="1.5"/>
    <line x1="309.0" y1="322.4" x2="309.0" y2="321.0" stroke="#2c3e50" stroke-width="1.3"/>
    <line x1="306.72" y1="321.0" x2="311.28" y2="321.0" stroke="#2c3e50" stroke-width="1.3"/>
  <text x="300" y="344" class="label">Autenticar</text>
  <text x="300" y="359" class="label">no sistema</text>
<circle cx="444.0" cy="310.0" r="3.5999999999999996" fill="none" stroke="#2c3e50" stroke-width="1.5"/>
    <path d="M439.6,321.0 Q439.6,315.6 444.0,315.6 Q448.4,315.6 448.4,321.0" fill="none" stroke="#2c3e50" stroke-width="1.5"/><line x1="450.0" y1="316.0" x2="453.6" y2="316.0" stroke="#2c3e50" stroke-width="1.5"/>
    <polygon points="453.6,313.0 458.6,316.0 453.6,319.0" fill="#2c3e50"/><rect x="455.2" y="310.4" width="7.6" height="6.0" rx="1.5" fill="none" stroke="#2c3e50" stroke-width="1.5"/>
    <line x1="459.0" y1="322.4" x2="459.0" y2="321.0" stroke="#2c3e50" stroke-width="1.3"/>
    <line x1="456.72" y1="321.0" x2="461.28" y2="321.0" stroke="#2c3e50" stroke-width="1.3"/>
  <text x="450" y="344" class="label">Selecionar arquivo</text>
  <text x="450" y="359" class="label">de vídeo</text>
<circle cx="584.0" cy="310.0" r="3.5999999999999996" fill="none" stroke="#2c3e50" stroke-width="1.5"/>
    <path d="M579.6,321.0 Q579.6,315.6 584.0,315.6 Q588.4,315.6 588.4,321.0" fill="none" stroke="#2c3e50" stroke-width="1.5"/><line x1="590.0" y1="316.0" x2="593.6" y2="316.0" stroke="#2c3e50" stroke-width="1.5"/>
    <polygon points="593.6,313.0 598.6,316.0 593.6,319.0" fill="#2c3e50"/><rect x="595.2" y="310.4" width="7.6" height="6.0" rx="1.5" fill="none" stroke="#2c3e50" stroke-width="1.5"/>
    <line x1="599.0" y1="322.4" x2="599.0" y2="321.0" stroke="#2c3e50" stroke-width="1.3"/>
    <line x1="596.72" y1="321.0" x2="601.28" y2="321.0" stroke="#2c3e50" stroke-width="1.3"/>
  <text x="590" y="344" class="label">Confirmar upload</text>
<rect x="713.0" y="310.0" width="14.0" height="12.0" rx="2" fill="none" stroke="#2c3e50" stroke-width="1.8"/>
    <line x1="720" y1="322.0" x2="720" y2="325.0" stroke="#2c3e50" stroke-width="1.8"/>
    <line x1="715.8" y1="325.0" x2="724.2" y2="325.0" stroke="#2c3e50" stroke-width="1.8"/>
  <text x="720" y="344" class="label">Processar vídeo</text>
  <text x="720" y="359" class="label">pela IA</text>
<circle cx="804.0" cy="310.0" r="3.5999999999999996" fill="none" stroke="#2c3e50" stroke-width="1.5"/>
    <path d="M799.6,321.0 Q799.6,315.6 804.0,315.6 Q808.4,315.6 808.4,321.0" fill="none" stroke="#2c3e50" stroke-width="1.5"/><line x1="810.0" y1="316.0" x2="813.6" y2="316.0" stroke="#2c3e50" stroke-width="1.5"/>
    <polygon points="813.6,313.0 818.6,316.0 813.6,319.0" fill="#2c3e50"/><rect x="815.2" y="310.4" width="7.6" height="6.0" rx="1.5" fill="none" stroke="#2c3e50" stroke-width="1.5"/>
    <line x1="819.0" y1="322.4" x2="819.0" y2="321.0" stroke="#2c3e50" stroke-width="1.3"/>
    <line x1="816.72" y1="321.0" x2="821.28" y2="321.0" stroke="#2c3e50" stroke-width="1.3"/>
  <text x="810" y="344" class="label">Visualizar indicador</text>
  <text x="810" y="359" class="label">de risco TEA</text>
<circle cx="954.0" cy="310.0" r="3.5999999999999996" fill="none" stroke="#2c3e50" stroke-width="1.5"/>
    <path d="M949.6,321.0 Q949.6,315.6 954.0,315.6 Q958.4,315.6 958.4,321.0" fill="none" stroke="#2c3e50" stroke-width="1.5"/><line x1="960.0" y1="316.0" x2="963.6" y2="316.0" stroke="#2c3e50" stroke-width="1.5"/>
    <polygon points="963.6,313.0 968.6,316.0 963.6,319.0" fill="#2c3e50"/><rect x="965.2" y="310.4" width="7.6" height="6.0" rx="1.5" fill="none" stroke="#2c3e50" stroke-width="1.5"/>
    <line x1="969.0" y1="322.4" x2="969.0" y2="321.0" stroke="#2c3e50" stroke-width="1.3"/>
    <line x1="966.72" y1="321.0" x2="971.28" y2="321.0" stroke="#2c3e50" stroke-width="1.3"/>
  <text x="960" y="344" class="label">Visualizar insights</text>
  <text x="960" y="359" class="label">comportamentais</text>
<circle cx="870" cy="439.0" r="5.0" fill="none" stroke="#2c3e50" stroke-width="1.8"/>
    <path d="M862.0,454.0 Q862.0,446.0 870,446.0 Q878.0,446.0 878.0,454.0" fill="none" stroke="#2c3e50" stroke-width="1.8"/>
  <text x="870" y="474" class="label">Interpretar resultados</text>
  <text x="870" y="489" class="label">para o laudo clínico</text>
  <rect x="261.0" y="142" width="29.0" height="20" rx="10" fill="#fff3f3" stroke="#e8c4c4" stroke-width="1"/>
  <text x="275" y="156" class="op-text">>></text>
  <rect x="638.0" y="142" width="44.0" height="20" rx="10" fill="#fff3f3" stroke="#e8c4c4" stroke-width="1"/>
  <text x="660" y="156" class="op-text">[]>></text>
  <rect x="361.0" y="278" width="29.0" height="20" rx="10" fill="#fff3f3" stroke="#e8c4c4" stroke-width="1"/>
  <text x="375" y="292" class="op-text">>></text>
  <rect x="498.0" y="278" width="44.0" height="20" rx="10" fill="#fff3f3" stroke="#e8c4c4" stroke-width="1"/>
  <text x="520" y="292" class="op-text">[]>></text>
  <rect x="633.0" y="278" width="44.0" height="20" rx="10" fill="#fff3f3" stroke="#e8c4c4" stroke-width="1"/>
  <text x="655" y="292" class="op-text">[]>></text>
  <rect x="867.0" y="278" width="36.5" height="20" rx="10" fill="#fff3f3" stroke="#e8c4c4" stroke-width="1"/>
  <text x="885" y="292" class="op-text">|||</text>
  <rect x="848.0" y="395" width="44.0" height="20" rx="10" fill="#fff3f3" stroke="#e8c4c4" stroke-width="1"/>
  <text x="870" y="409" class="op-text">[]>></text>
  <rect x="10" y="470" width="340" height="90" class="legend-bg"/>
  <text x="20" y="486" class="legend-title">Legenda — Tipos de Tarefa:</text>
<ellipse cx="32" cy="504" rx="9.360000000000001" ry="5.760000000000001" fill="#b0c4de" stroke="#4a6fa5" stroke-width="1.5" opacity="0.85"/>
    <circle cx="28.4" cy="500.96" r="3.6" fill="#b0c4de" stroke="#4a6fa5" stroke-width="1.5"/>
    <circle cx="34.88" cy="500.24" r="3.24" fill="#b0c4de" stroke="#4a6fa5" stroke-width="1.5"/>
    <circle cx="32" cy="498.8" r="3.9600000000000004" fill="#b0c4de" stroke="#4a6fa5" stroke-width="1.5"/>
  <text x="52" y="509" class="legend-text">Abstrata</text>
<circle cx="122" cy="497.2" r="4.0" fill="none" stroke="#2c3e50" stroke-width="1.8"/>
    <path d="M115.6,509.2 Q115.6,502.8 122,502.8 Q128.4,502.8 128.4,509.2" fill="none" stroke="#2c3e50" stroke-width="1.8"/>
  <text x="142" y="509" class="legend-text">Usuário</text>
<rect x="206.4" y="498.0" width="11.2" height="9.6" rx="2" fill="none" stroke="#2c3e50" stroke-width="1.8"/>
    <line x1="212" y1="507.6" x2="212" y2="510.0" stroke="#2c3e50" stroke-width="1.8"/>
    <line x1="208.64" y1="510.0" x2="215.36" y2="510.0" stroke="#2c3e50" stroke-width="1.8"/>
  <text x="232" y="509" class="legend-text">Sistema</text>
<circle cx="300.2" cy="498.0" r="2.88" fill="none" stroke="#2c3e50" stroke-width="1.5"/>
    <path d="M296.68,506.8 Q296.68,502.48 300.2,502.48 Q303.72,502.48 303.72,506.8" fill="none" stroke="#2c3e50" stroke-width="1.5"/><line x1="305.0" y1="502.8" x2="307.88" y2="502.8" stroke="#2c3e50" stroke-width="1.5"/>
    <polygon points="307.88,499.8 312.88,502.8 307.88,505.8" fill="#2c3e50"/><rect x="309.15999999999997" y="498.32" width="6.08" height="4.8" rx="1.5" fill="none" stroke="#2c3e50" stroke-width="1.5"/>
    <line x1="312.2" y1="507.92" x2="312.2" y2="506.8" stroke="#2c3e50" stroke-width="1.3"/>
    <line x1="310.376" y1="506.8" x2="314.024" y2="506.8" stroke="#2c3e50" stroke-width="1.3"/>
  <text x="305" y="526" class="legend-text">Interativa</text>
  <text x="20" y="535" class="legend-title">Relações:</text>
  <text x="20" y="550" class="legend-text"><tspan fill="#c0392b" font-weight="bold">&gt;&gt;</tspan> ativação   <tspan fill="#c0392b" font-weight="bold">[]&gt;&gt;</tspan> ativ.+info   <tspan fill="#c0392b" font-weight="bold">|||</tspan> concorrência   <tspan fill="#c0392b" font-weight="bold">[]</tspan> escolha   <tspan fill="#c0392b" font-weight="bold">[&gt;</tspan> desativ.   <tspan fill="#c0392b" font-weight="bold">|&gt;</tspan> suspensão</text>
</svg>