<svg xmlns="http://www.w3.org/2000/svg" viewBox="0 0 1100 570" width="1100" height="570">
  <defs>
    <style>
      .label { font-family: 'Segoe UI', Arial, sans-serif; font-size: 12px; fill: #2c3e50; text-anchor: middle; }
      .op-text { font-family: 'Consolas', 'Courier New', monospace; font-size: 13px; fill: #c0392b; text-anchor: middle; font-weight: bold; }
      .title { font-family: 'Segoe UI', Arial, sans-serif; font-size: 15px; fill: #2c3e50; text-anchor: middle; font-weight: bold; }
      .conn { stroke: #555; stroke-width: 1.3; fill: none; }
      .legend-bg { fill: #f5f6f8; stroke: #ccc; stroke-width: 1; rx: 6; }
      .legend-text { font-family: 'Segoe UI', Arial, sans-serif; font-size: 10.5px; fill: #444; text-anchor: start; dominant-baseline: central; }
      .legend-title { font-family: 'Segoe UI', Arial, sans-serif; font-size: 11px; fill: #2c3e50; text-anchor: start; font-weight: bold; }
    </style>
  </defs>
  <rect width="1100" height="570" fill="#fafbfc" rx="8"/>
  <text x="550" y="28" class="title">CTT 2 — Consultar Análise de Vídeo Já Processado (Módulo Especialista)</text>
  <path d="M550,87 L550,125 L100,125 L100,163" class="conn"/>
  <path d="M550,87 L550,125 L420,125 L420,163" class="conn"/>
  <path d="M550,87 L550,125 L820,125 L820,163" class="conn"/>
  <path d="M420,207 L420,252 L280,252 L280,298" class="conn"/>
  <path d="M420,207 L420,252 L430,252 L430,298" class="conn"/>
  <path d="M420,207 L420,252 L580,252 L580,298" class="conn"/>
  <path d="M820,207 L820,252 L750,252 L750,298" class="conn"/>
  <path d="M820,207 L820,252 L920,252 L920,298" class="conn"/>
  <path d="M820,207 L820,317 L820,317 L820,428" class="conn"/>
<ellipse cx="550" cy="63" rx="11.700000000000001" ry="7.2" fill="#b0c4de" stroke="#4a6fa5" stroke-width="1.5" opacity="0.85"/>
    <circle cx="545.5" cy="58.7" r="4.5" fill="#b0c4de" stroke="#4a6fa5" stroke-width="1.5"/>
    <circle cx="553.6" cy="57.8" r="4.05" fill="#b0c4de" stroke="#4a6fa5" stroke-width="1.5"/>
    <circle cx="550" cy="56.0" r="4.95" fill="#b0c4de" stroke="#4a6fa5" stroke-width="1.5"/>
  <text x="550" y="89" class="label">Revisar análise de</text>
  <text x="550" y="104" class="label">vídeo já processado</text>
<circle cx="100" cy="174.0" r="5.0" fill="none" stroke="#2c3e50" stroke-width="1.8"/>
    <path d="M92.0,189.0 Q92.0,181.0 100,181.0 Q108.0,181.0 108.0,189.0" fill="none" stroke="#2c3e50" stroke-width="1.8"/>
  <text x="100" y="209" class="label">Decidir consultar</text>
  <text x="100" y="224" class="label">dados para o laudo</text>
<ellipse cx="420" cy="183" rx="11.700000000000001" ry="7.2" fill="#b0c4de" stroke="#4a6fa5" stroke-width="1.5" opacity="0.85"/>
    <circle cx="415.5" cy="178.7" r="4.5" fill="#b0c4de" stroke="#4a6fa5" stroke-width="1.5"/>
    <circle cx="423.6" cy="177.8" r="4.05" fill="#b0c4de" stroke="#4a6fa5" stroke-width="1.5"/>
    <circle cx="420" cy="176.0" r="4.95" fill="#b0c4de" stroke="#4a6fa5" stroke-width="1.5"/>
  <text x="420" y="209" class="label">Acessar e localizar</text>
  <text x="420" y="224" class="label">vídeo no sistema</text>
<ellipse cx="820" cy="183" rx="11.700000000000001" ry="7.2" fill="#b0c4de" stroke="#4a6fa5" stroke-width="1.5" opacity="0.85"/>
    <circle cx="815.5" cy="178.7" r="4.5" fill="#b0c4de" stroke="#4a6fa5" stroke-width="1.5"/>
    <circle cx="823.6" cy="177.8" r="4.05" fill="#b0c4de" stroke="#4a6fa5" stroke-width="1.5"/>
    <circle cx="820" cy="176.0" r="4.95" fill="#b0c4de" stroke="#4a6fa5" stroke-width="1.5"/>
  <text x="820" y="209" class="label">Analisar dados</text>
  <text x="820" y="224" class="label">do vídeo</text>
<circle cx="274.0" cy="310.0" r="3.5999999999999996" fill="none" stroke="#2c3e50" stroke-width="1.5"/>
    <path d="M269.6,321.0 Q269.6,315.6 274.0,315.6 Q278.4,315.6 278.4,321.0" fill="none" stroke="#2c3e50" stroke-width="1.5"/><line x1="280.0" y1="316.0" x2="283.6" y2="316.0" stroke="#2c3e50" stroke-width="1.5"/>
    <polygon points="283.6,313.0 288.6,316.0 283.6,319.0" fill="#2c3e50"/><rect x="285.2" y="310.4" width="7.6" height="6.0" rx="1.5" fill="none" stroke="#2c3e50" stroke-width="1.5"/>
    <line x1="289.0" y1="322.4" x2="289.0" y2="321.0" stroke="#2c3e50" stroke-width="1.3"/>
    <line x1="286.72" y1="321.0" x2="291.28" y2="321.0" stroke="#2c3e50" stroke-width="1.3"/>
  <text x="280" y="344" class="label">Autenticar</text>
  <text x="280" y="359" class="label">no sistema</text>
<circle cx="424.0" cy="310.0" r="3.5999999999999996" fill="none" stroke="#2c3e50" stroke-width="1.5"/>
    <path d="M419.6,321.0 Q419.6,315.6 424.0,315.6 Q428.4,315.6 428.4,321.0" fill="none" stroke="#2c3e50" stroke-width="1.5"/><line x1="430.0" y1="316.0" x2="433.6" y2="316.0" stroke="#2c3e50" stroke-width="1.5"/>
    <polygon points="433.6,313.0 438.6,316.0 433.6,319.0" fill="#2c3e50"/><rect x="435.2" y="310.4" width="7.6" height="6.0" rx="1.5" fill="none" stroke="#2c3e50" stroke-width="1.5"/>
    <line x1="439.0" y1="322.4" x2="439.0" y2="321.0" stroke="#2c3e50" stroke-width="1.3"/>
    <line x1="436.72" y1="321.0" x2="441.28" y2="321.0" stroke="#2c3e50" stroke-width="1.3"/>
  <text x="430" y="344" class="label">Buscar por</text>
  <text x="430" y="359" class="label">nome ou data</text>
<circle cx="574.0" cy="310.0" r="3.5999999999999996" fill="none" stroke="#2c3e50" stroke-width="1.5"/>
    <path d="M569.6,321.0 Q569.6,315.6 574.0,315.6 Q578.4,315.6 578.4,321.0" fill="none" stroke="#2c3e50" stroke-width="1.5"/><line x1="580.0" y1="316.0" x2="583.6" y2="316.0" stroke="#2c3e50" stroke-width="1.5"/>
    <polygon points="583.6,313.0 588.6,316.0 583.6,319.0" fill="#2c3e50"/><rect x="585.2" y="310.4" width="7.6" height="6.0" rx="1.5" fill="none" stroke="#2c3e50" stroke-width="1.5"/>
    <line x1="589.0" y1="322.4" x2="589.0" y2="321.0" stroke="#2c3e50" stroke-width="1.3"/>
    <line x1="586.72" y1="321.0" x2="591.28" y2="321.0" stroke="#2c3e50" stroke-width="1.3"/>
  <text x="580" y="344" class="label">Navegar pela</text>
  <text x="580" y="359" class="label">lista do dashboard</text>
<circle cx="744.0" cy="310.0" r="3.5999999999999996" fill="none" stroke="#2c3e50" stroke-width="1.5"/>
    <path d="M739.6,321.0 Q739.6,315.6 744.0,315.6 Q748.4,315.6 748.4,321.0" fill="none" stroke="#2c3e50" stroke-width="1.5"/><line x1="750.0" y1="316.0" x2="753.6" y2="316.0" stroke="#2c3e50" stroke-width="1.5"/>
    <polygon points="753.6,313.0 758.6,316.0 753.6,319.0" fill="#2c3e50"/><rect x="755.2" y="310.4" width="7.6" height="6.0" rx="1.5" fill="none" stroke="#2c3e50" stroke-width="1.5"/>
    <line x1="759.0" y1="322.4" x2="759.0" y2="321.0" stroke="#2c3e50" stroke-width="1.3"/>
    <line x1="756.72" y1="321.0" x2="761.28" y2="321.0" stroke="#2c3e50" stroke-width="1.3"/>
  <text x="750" y="344" class="label">Visualizar métricas</text>
  <text x="750" y="359" class="label">e insights</text>
<circle cx="914.0" cy="310.0" r="3.5999999999999996" fill="none" stroke="#2c3e50" stroke-width="1.5"/>
    <path d="M909.6,321.0 Q909.6,315.6 914.0,315.6 Q918.4,315.6 918.4,321.0" fill="none" stroke="#2c3e50" stroke-width="1.5"/><line x1="920.0" y1="316.0" x2="923.6" y2="316.0" stroke="#2c3e50" stroke-width="1.5"/>
    <polygon points="923.6,313.0 928.6,316.0 923.6,319.0" fill="#2c3e50"/><rect x="925.2" y="310.4" width="7.6" height="6.0" rx="1.5" fill="none" stroke="#2c3e50" stroke-width="1.5"/>
    <line x1="929.0" y1="322.4" x2="929.0" y2="321.0" stroke="#2c3e50" stroke-width="1.3"/>
    <line x1="926.72" y1="321.0" x2="931.28" y2="321.0" stroke="#2c3e50" stroke-width="1.3"/>
  <text x="920" y="344" class="label">Reproduzir vídeo</text>
  <text x="920" y="359" class="label">com anotações da IA</text>
<circle cx="820" cy="439.0" r="5.0" fill="none" stroke="#2c3e50" stroke-width="1.8"/>
    <path d="M812.0,454.0 Q812.0,446.0 820,446.0 Q828.0,446.0 828.0,454.0" fill="none" stroke="#2c3e50" stroke-width="1.8"/>
  <text x="820" y="474" class="label">Consolidar percepção</text>
  <text x="820" y="489" class="label">clínica sobre o caso</text>
  <rect x="246.0" y="142" width="29.0" height="20" rx="10" fill="#fff3f3" stroke="#e8c4c4" stroke-width="1"/>
  <text x="260" y="156" class="op-text">>></text>
  <rect x="598.0" y="142" width="44.0" height="20" rx="10" fill="#fff3f3" stroke="#e8c4c4" stroke-width="1"/>
  <text x="620" y="156" class="op-text">[]>></text>
  <rect x="341.0" y="278" width="29.0" height="20" rx="10" fill="#fff3f3" stroke="#e8c4c4" stroke-width="1"/>
  <text x="355" y="292" class="op-text">>></text>
  <rect x="491.0" y="278" width="29.0" height="20" rx="10" fill="#fff3f3" stroke="#e8c4c4" stroke-width="1"/>
  <text x="505" y="292" class="op-text">[]</text>
  <rect x="817.0" y="278" width="36.5" height="20" rx="10" fill="#fff3f3" stroke="#e8c4c4" stroke-width="1"/>
  <text x="835" y="292" class="op-text">|=|</text>
  <rect x="798.0" y="395" width="44.0" height="20" rx="10" fill="#fff3f3" stroke="#e8c4c4" stroke-width="1"/>
  <text x="820" y="409" class="op-text">[]>></text>
  <rect x="10" y="470" width="340" height="90" class="legend-bg"/>
  <text x="20" y="486" class="legend-title">Legenda — Tipos de Tarefa:</text>
<ellipse cx="32" cy="504" rx="9.360000000000001" ry="5.760000000000001" fill="#b0c4de" stroke="#4a6fa5" stroke-width="1.5" opacity="0.85"/>
    <circle cx="28.4" cy="500.96" r="3.6" fill="#b0c4de" stroke="#4a6fa5" stroke-width="1.5"/>
    <circle cx="34.88" cy="500.24" r="3.24" fill="#b0c4de" stroke="#4a6fa5" stroke-width="1.5"/>
    <circle cx="32" cy="498.8" r="3.9600000000000004" fill="#b0c4de" stroke="#4a6fa5" stroke-width="1.5"/>
  <text x="52" y="509" class="legend-text">Abstrata</text>
<circle cx="122" cy="497.2" r="4.0" fill="none" stroke="#2c3e50" stroke-width="1.8"/>
    <path d="M115.6,509.2 Q115.6,502.8 122,502.8 Q128.4,502.8 128.4,509.2" fill="none" stroke="#2c3e50" stroke-width="1.8"/>
  <text x="142" y="509" class="legend-text">Usuário</text>
<rect x="206.4" y="498.0" width="11.2" height="9.6" rx="2" fill="none" stroke="#2c3e50" stroke-width="1.8"/>
    <line x1="212" y1="507.6" x2="212" y2="510.0" stroke="#2c3e50" stroke-width="1.8"/>
    <line x1="208.64" y1="510.0" x2="215.36" y2="510.0" stroke="#2c3e50" stroke-width="1.8"/>
  <text x="232" y="509" class="legend-text">Sistema</text>
<circle cx="300.2" cy="498.0" r="2.88" fill="none" stroke="#2c3e50" stroke-width="1.5"/>
    <path d="M296.68,506.8 Q296.68,502.48 300.2,502.48 Q303.72,502.48 303.72,506.8" fill="none" stroke="#2c3e50" stroke-width="1.5"/><line x1="305.0" y1="502.8" x2="307.88" y2="502.8" stroke="#2c3e50" stroke-width="1.5"/>
    <polygon points="307.88,499.8 312.88,502.8 307.88,505.8" fill="#2c3e50"/><rect x="309.15999999999997" y="498.32" width="6.08" height="4.8" rx="1.5" fill="none" stroke="#2c3e50" stroke-width="1.5"/>
    <line x1="312.2" y1="507.92" x2="312.2" y2="506.8" stroke="#2c3e50" stroke-width="1.3"/>
    <line x1="310.376" y1="506.8" x2="314.024" y2="506.8" stroke="#2c3e50" stroke-width="1.3"/>
  <text x="305" y="526" class="legend-text">Interativa</text>
  <text x="20" y="535" class="legend-title">Relações:</text>
  <text x="20" y="550" class="legend-text"><tspan fill="#c0392b" font-weight="bold">&gt;&gt;</tspan> ativação   <tspan fill="#c0392b" font-weight="bold">[]&gt;&gt;</tspan> ativ.+info   <tspan fill="#c0392b" font-weight="bold">|||</tspan> concorrência   <tspan fill="#c0392b" font-weight="bold">[]</tspan> escolha   <tspan fill="#c0392b" font-weight="bold">[&gt;</tspan> desativ.   <tspan fill="#c0392b" font-weight="bold">|&gt;</tspan> suspensão</text>
</svg>