<svg xmlns="http://www.w3.org/2000/svg" viewBox="0 0 1050 530" width="1050" height="530">
  <defs>
    <style>
      .label { font-family: 'Segoe UI', Arial, sans-serif; font-size: 12.5px; fill: #2c3e50; text-anchor: middle; }
      .label-bold { font-family: 'Segoe UI', Arial, sans-serif; font-size: 12.5px; fill: #2c3e50; text-anchor: middle; font-weight: bold; }
      .op-text { font-family: 'Consolas', 'Courier New', monospace; font-size: 13px; fill: #c0392b; text-anchor: middle; font-weight: bold; }
      .title { font-family: 'Segoe UI', Arial, sans-serif; font-size: 15px; fill: #2c3e50; text-anchor: middle; font-weight: bold; }
      .conn { stroke: #555; stroke-width: 1.4; fill: none; }
      .legend-bg { fill: #f5f6f8; stroke: #ccc; stroke-width: 1; rx: 6; }
      .legend-text { font-family: 'Segoe UI', Arial, sans-serif; font-size: 10.5px; fill: #444; text-anchor: start; dominant-baseline: central; }
      .legend-title { font-family: 'Segoe UI', Arial, sans-serif; font-size: 11px; fill: #2c3e50; text-anchor: start; font-weight: bold; }
    </style>
    <marker id="arrowhead" markerWidth="6" markerHeight="4" refX="5" refY="2" orient="auto">
      <polygon points="0 0, 6 2, 0 4" fill="#2c3e50"/>
    </marker>
  </defs>
  <rect width="1050" height="530" fill="#fafbfc" rx="8"/>
  <text x="525" y="28" class="title">CTT 2 — Consultar Análise de Vídeo Já Processado (Módulo Especialista)</text>
  <path d="M525,87 L525,120 L150,120 L150,153" class="conn"/>
  <path d="M525,87 L525,120 L480,120 L480,153" class="conn"/>
  <path d="M525,87 L525,120 L850,120 L850,153" class="conn"/>
  <path d="M150,197 L150,237 L80,237 L80,278" class="conn"/>
  <path d="M150,197 L150,237 L230,237 L230,278" class="conn"/>
  <path d="M480,197 L480,237 L400,237 L400,278" class="conn"/>
  <path d="M480,197 L480,237 L560,237 L560,278" class="conn"/>
  <path d="M850,197 L850,237 L770,237 L770,278" class="conn"/>
  <path d="M850,197 L850,237 L940,237 L940,278" class="conn"/>
  <path d="M850,197 L850,297 L850,297 L850,398" class="conn"/>
<ellipse cx="525" cy="63" rx="11.700000000000001" ry="7.2" fill="#b0c4de" stroke="#4a6fa5" stroke-width="1.5" opacity="0.85"/>
    <circle cx="520.5" cy="58.7" r="4.5" fill="#b0c4de" stroke="#4a6fa5" stroke-width="1.5"/>
    <circle cx="528.6" cy="57.8" r="4.05" fill="#b0c4de" stroke="#4a6fa5" stroke-width="1.5"/>
    <circle cx="525" cy="56.0" r="4.95" fill="#b0c4de" stroke="#4a6fa5" stroke-width="1.5"/>
  <text x="525" y="89" class="label">Consultar análise de</text>
  <text x="525" y="104" class="label">vídeo já processado</text>
<ellipse cx="150" cy="173" rx="11.700000000000001" ry="7.2" fill="#b0c4de" stroke="#4a6fa5" stroke-width="1.5" opacity="0.85"/>
    <circle cx="145.5" cy="168.7" r="4.5" fill="#b0c4de" stroke="#4a6fa5" stroke-width="1.5"/>
    <circle cx="153.6" cy="167.8" r="4.05" fill="#b0c4de" stroke="#4a6fa5" stroke-width="1.5"/>
    <circle cx="150" cy="166.0" r="4.95" fill="#b0c4de" stroke="#4a6fa5" stroke-width="1.5"/>
  <text x="150" y="199" class="label">Acessar o sistema</text>
<ellipse cx="480" cy="173" rx="11.700000000000001" ry="7.2" fill="#b0c4de" stroke="#4a6fa5" stroke-width="1.5" opacity="0.85"/>
    <circle cx="475.5" cy="168.7" r="4.5" fill="#b0c4de" stroke="#4a6fa5" stroke-width="1.5"/>
    <circle cx="483.6" cy="167.8" r="4.05" fill="#b0c4de" stroke="#4a6fa5" stroke-width="1.5"/>
    <circle cx="480" cy="166.0" r="4.95" fill="#b0c4de" stroke="#4a6fa5" stroke-width="1.5"/>
  <text x="480" y="199" class="label">Localizar vídeo</text>
<ellipse cx="850" cy="173" rx="11.700000000000001" ry="7.2" fill="#b0c4de" stroke="#4a6fa5" stroke-width="1.5" opacity="0.85"/>
    <circle cx="845.5" cy="168.7" r="4.5" fill="#b0c4de" stroke="#4a6fa5" stroke-width="1.5"/>
    <circle cx="853.6" cy="167.8" r="4.05" fill="#b0c4de" stroke="#4a6fa5" stroke-width="1.5"/>
    <circle cx="850" cy="166.0" r="4.95" fill="#b0c4de" stroke="#4a6fa5" stroke-width="1.5"/>
  <text x="850" y="199" class="label">Analisar dados</text>
  <text x="850" y="214" class="label">do vídeo</text>
<circle cx="74.4" cy="290.0" r="3.2" fill="none" stroke="#2c3e50" stroke-width="1.5"/>
    <path d="M70.0,302.0 Q70.0,296.0 74.4,296.0 Q78.8,296.0 78.8,302.0" fill="none" stroke="#2c3e50" stroke-width="1.5"/><line x1="81.0" y1="297.0" x2="85.0" y2="297.0" stroke="#2c3e50" stroke-width="1.5" marker-end="url(#arrowhead)"/><rect x="84.9" y="291.4" width="7.0" height="5.6000000000000005" rx="1.5" fill="none" stroke="#2c3e50" stroke-width="1.5"/>
    <line x1="86.65" y1="301.0" x2="90.15" y2="301.0" stroke="#2c3e50" stroke-width="1.5"/>
  <text x="80" y="324" class="label">Inserir</text>
  <text x="80" y="339" class="label">credenciais</text>
<rect x="223.0" y="290.0" width="14.0" height="12.0" rx="2" fill="none" stroke="#2c3e50" stroke-width="1.8"/>
    <line x1="225.8" y1="303.5" x2="234.2" y2="303.5" stroke="#2c3e50" stroke-width="1.8"/>
  <text x="230" y="324" class="label">Validar</text>
  <text x="230" y="339" class="label">credenciais</text>
<circle cx="394.4" cy="290.0" r="3.2" fill="none" stroke="#2c3e50" stroke-width="1.5"/>
    <path d="M390.0,302.0 Q390.0,296.0 394.4,296.0 Q398.8,296.0 398.8,302.0" fill="none" stroke="#2c3e50" stroke-width="1.5"/><line x1="401.0" y1="297.0" x2="405.0" y2="297.0" stroke="#2c3e50" stroke-width="1.5" marker-end="url(#arrowhead)"/><rect x="404.9" y="291.4" width="7.0" height="5.6000000000000005" rx="1.5" fill="none" stroke="#2c3e50" stroke-width="1.5"/>
    <line x1="406.65" y1="301.0" x2="410.15" y2="301.0" stroke="#2c3e50" stroke-width="1.5"/>
  <text x="400" y="324" class="label">Buscar por</text>
  <text x="400" y="339" class="label">nome ou data</text>
<circle cx="554.4" cy="290.0" r="3.2" fill="none" stroke="#2c3e50" stroke-width="1.5"/>
    <path d="M550.0,302.0 Q550.0,296.0 554.4,296.0 Q558.8,296.0 558.8,302.0" fill="none" stroke="#2c3e50" stroke-width="1.5"/><line x1="561.0" y1="297.0" x2="565.0" y2="297.0" stroke="#2c3e50" stroke-width="1.5" marker-end="url(#arrowhead)"/><rect x="564.9" y="291.4" width="7.0" height="5.6000000000000005" rx="1.5" fill="none" stroke="#2c3e50" stroke-width="1.5"/>
    <line x1="566.65" y1="301.0" x2="570.15" y2="301.0" stroke="#2c3e50" stroke-width="1.5"/>
  <text x="560" y="324" class="label">Navegar pela</text>
  <text x="560" y="339" class="label">lista do dashboard</text>
<circle cx="764.4" cy="290.0" r="3.2" fill="none" stroke="#2c3e50" stroke-width="1.5"/>
    <path d="M760.0,302.0 Q760.0,296.0 764.4,296.0 Q768.8,296.0 768.8,302.0" fill="none" stroke="#2c3e50" stroke-width="1.5"/><line x1="771.0" y1="297.0" x2="775.0" y2="297.0" stroke="#2c3e50" stroke-width="1.5" marker-end="url(#arrowhead)"/><rect x="774.9" y="291.4" width="7.0" height="5.6000000000000005" rx="1.5" fill="none" stroke="#2c3e50" stroke-width="1.5"/>
    <line x1="776.65" y1="301.0" x2="780.15" y2="301.0" stroke="#2c3e50" stroke-width="1.5"/>
  <text x="770" y="324" class="label">Visualizar métricas</text>
  <text x="770" y="339" class="label">e insights</text>
<circle cx="934.4" cy="290.0" r="3.2" fill="none" stroke="#2c3e50" stroke-width="1.5"/>
    <path d="M930.0,302.0 Q930.0,296.0 934.4,296.0 Q938.8,296.0 938.8,302.0" fill="none" stroke="#2c3e50" stroke-width="1.5"/><line x1="941.0" y1="297.0" x2="945.0" y2="297.0" stroke="#2c3e50" stroke-width="1.5" marker-end="url(#arrowhead)"/><rect x="944.9" y="291.4" width="7.0" height="5.6000000000000005" rx="1.5" fill="none" stroke="#2c3e50" stroke-width="1.5"/>
    <line x1="946.65" y1="301.0" x2="950.15" y2="301.0" stroke="#2c3e50" stroke-width="1.5"/>
  <text x="940" y="324" class="label">Reproduzir vídeo</text>
  <text x="940" y="339" class="label">com anotações da IA</text>
<circle cx="844.4" cy="410.0" r="3.2" fill="none" stroke="#2c3e50" stroke-width="1.5"/>
    <path d="M840.0,422.0 Q840.0,416.0 844.4,416.0 Q848.8,416.0 848.8,422.0" fill="none" stroke="#2c3e50" stroke-width="1.5"/><line x1="851.0" y1="417.0" x2="855.0" y2="417.0" stroke="#2c3e50" stroke-width="1.5" marker-end="url(#arrowhead)"/><rect x="854.9" y="411.4" width="7.0" height="5.6000000000000005" rx="1.5" fill="none" stroke="#2c3e50" stroke-width="1.5"/>
    <line x1="856.65" y1="421.0" x2="860.15" y2="421.0" stroke="#2c3e50" stroke-width="1.5"/>
  <text x="850" y="444" class="label">Retornar ao</text>
  <text x="850" y="459" class="label">dashboard (Home)</text>
  <rect x="142" y="258" width="26" height="20" rx="10" fill="#fff3f3" stroke="#e8c4c4" stroke-width="1"/>
  <text x="155" y="272" class="op-text">>></text>
  <rect x="302" y="135" width="26" height="20" rx="10" fill="#fff3f3" stroke="#e8c4c4" stroke-width="1"/>
  <text x="315" y="149" class="op-text">>></text>
  <rect x="645" y="135" width="40" height="20" rx="10" fill="#fff3f3" stroke="#e8c4c4" stroke-width="1"/>
  <text x="665" y="149" class="op-text">[]>></text>
  <rect x="467" y="258" width="26" height="20" rx="10" fill="#fff3f3" stroke="#e8c4c4" stroke-width="1"/>
  <text x="480" y="272" class="op-text">[]</text>
  <rect x="839" y="258" width="33" height="20" rx="10" fill="#fff3f3" stroke="#e8c4c4" stroke-width="1"/>
  <text x="855" y="272" class="op-text">|=|</text>
  <rect x="837" y="375" width="26" height="20" rx="10" fill="#fff3f3" stroke="#e8c4c4" stroke-width="1"/>
  <text x="850" y="389" class="op-text">|></text>
  <rect x="10" y="425" width="320" height="95" class="legend-bg"/>
  <text x="20" y="441" class="legend-title">Legenda — Tipos de Tarefa:</text>
<ellipse cx="32" cy="458" rx="9.360000000000001" ry="5.760000000000001" fill="#b0c4de" stroke="#4a6fa5" stroke-width="1.5" opacity="0.85"/>
    <circle cx="28.4" cy="454.96" r="3.6" fill="#b0c4de" stroke="#4a6fa5" stroke-width="1.5"/>
    <circle cx="34.88" cy="454.24" r="3.24" fill="#b0c4de" stroke="#4a6fa5" stroke-width="1.5"/>
    <circle cx="32" cy="452.8" r="3.9600000000000004" fill="#b0c4de" stroke="#4a6fa5" stroke-width="1.5"/>
  <text x="50" y="464" class="legend-text">Abstrata</text>
<circle cx="120" cy="451.2" r="3.52" fill="none" stroke="#2c3e50" stroke-width="1.8"/>
    <path d="M114.4,462.4 Q114.4,456.0 120,456.0 Q125.6,456.0 125.6,462.4" fill="none" stroke="#2c3e50" stroke-width="1.8"/>
  <text x="138" y="464" class="legend-text">Usuário</text>
<rect x="199.4" y="452.0" width="11.2" height="9.6" rx="2" fill="none" stroke="#2c3e50" stroke-width="1.8"/>
    <line x1="201.64" y1="462.8" x2="208.36" y2="462.8" stroke="#2c3e50" stroke-width="1.8"/>
  <text x="225" y="464" class="legend-text">Sistema</text>
<circle cx="285.52" cy="454.0" r="2.56" fill="none" stroke="#2c3e50" stroke-width="1.5"/>
    <path d="M282.0,463.6 Q282.0,458.8 285.52,458.8 Q289.04,458.8 289.04,463.6" fill="none" stroke="#2c3e50" stroke-width="1.5"/><line x1="290.8" y1="459.6" x2="294.0" y2="459.6" stroke="#2c3e50" stroke-width="1.5" marker-end="url(#arrowhead)"/><rect x="293.92" y="455.12" width="5.6" height="4.48" rx="1.5" fill="none" stroke="#2c3e50" stroke-width="1.5"/>
    <line x1="295.32000000000005" y1="462.8" x2="298.12" y2="462.8" stroke="#2c3e50" stroke-width="1.5"/>
  <text x="290" y="482" class="legend-text">Interativa</text>
  <text x="20" y="493" class="legend-title">Relações:</text>
  <text x="20" y="509" class="legend-text"><tspan fill="#c0392b" font-weight="bold">&gt;&gt;</tspan> ativação  <tspan fill="#c0392b" font-weight="bold">[]&gt;&gt;</tspan> ativ.+info  <tspan fill="#c0392b" font-weight="bold">|||</tspan> concorrência  <tspan fill="#c0392b" font-weight="bold">[]</tspan> escolha  <tspan fill="#c0392b" font-weight="bold">[&gt;</tspan> desativação  <tspan fill="#c0392b" font-weight="bold">|&gt;</tspan> suspensão</text>
</svg>